<svg xmlns="http://www.w3.org/2000/svg" xmlns:xlink="http://www.w3.org/1999/xlink" width="500" zoomAndPan="magnify" viewBox="0 0 375 374.999991" height="500" preserveAspectRatio="xMidYMid meet" version="1.2"><defs/><g id="749b05a831"><g style="fill:#000000;fill-opacity:1;"><g transform="translate(160.11101, 326.089733)"><path style="stroke:none" d="M 6.171875 0 L 6.171875 -2.796875 L 12.046875 -5.046875 C 15.972656 -6.535156 18.445312 -8.351562 19.46875 -10.5 C 20.5 -12.65625 21.015625 -15.601562 21.015625 -19.34375 L 21.015625 -165.625 C 21.015625 -169.363281 20.453125 -172.351562 19.328125 -174.59375 C 18.210938 -176.832031 15.785156 -178.609375 12.046875 -179.921875 L 6.171875 -182.15625 L 6.171875 -184.96875 L 77.625 -184.96875 L 77.625 -182.15625 L 72.578125 -179.921875 C 69.035156 -178.609375 66.609375 -176.785156 65.296875 -174.453125 C 63.992188 -172.117188 63.34375 -169.082031 63.34375 -165.34375 L 63.34375 -5.609375 L 106.5 -5.609375 C 113.40625 -5.609375 118.492188 -7.285156 121.765625 -10.640625 C 125.035156 -14.003906 128.164062 -18.863281 131.15625 -25.21875 L 142.09375 -48.765625 L 144.890625 -48.765625 L 142.359375 0 Z M 6.171875 0 "/></g></g><g style="fill:#000000;fill-opacity:1;"><g transform="translate(58.281913, 230.012048)"><path style="stroke:none" d="M 102.015625 5.046875 C 82.953125 5.046875 66.179688 1.078125 51.703125 -6.859375 C 37.222656 -14.804688 25.921875 -26.113281 17.796875 -40.78125 C 9.671875 -55.445312 5.609375 -72.773438 5.609375 -92.765625 C 5.609375 -112.191406 9.625 -129.191406 17.65625 -143.765625 C 25.6875 -158.335938 37.316406 -169.6875 52.546875 -177.8125 C 67.773438 -185.945312 86.222656 -190.015625 107.890625 -190.015625 C 117.796875 -190.015625 127 -188.890625 135.5 -186.640625 C 144 -184.398438 152.082031 -181.132812 159.75 -176.84375 L 160.859375 -137.609375 L 158.0625 -137.609375 L 142.359375 -166.75 C 139.929688 -171.414062 137.691406 -174.773438 135.640625 -176.828125 C 133.585938 -178.890625 130.972656 -180.484375 127.796875 -181.609375 C 124.804688 -182.535156 122.050781 -183.234375 119.53125 -183.703125 C 117.007812 -184.171875 113.691406 -184.40625 109.578125 -184.40625 C 97.992188 -184.40625 87.765625 -181.320312 78.890625 -175.15625 C 70.015625 -168.988281 63.144531 -159.175781 58.28125 -145.71875 C 53.425781 -132.269531 51 -114.617188 51 -92.765625 C 51 -71.085938 53.285156 -53.429688 57.859375 -39.796875 C 62.441406 -26.160156 68.9375 -16.210938 77.34375 -9.953125 C 85.75 -3.691406 95.46875 -0.5625 106.5 -0.5625 C 108.175781 -0.5625 109.804688 -0.703125 111.390625 -0.984375 C 112.984375 -1.265625 114.53125 -1.59375 116.03125 -1.96875 C 119.570312 -2.519531 121.90625 -4.007812 123.03125 -6.4375 C 124.15625 -8.875 124.71875 -11.773438 124.71875 -15.140625 L 124.71875 -70.625 C 124.71875 -77.90625 120.976562 -82.390625 113.5 -84.078125 L 100.609375 -87.4375 L 100.609375 -90.234375 L 179.640625 -90.234375 L 179.640625 -87.4375 L 175.71875 -86.3125 C 168.613281 -84.070312 165.0625 -79.398438 165.0625 -72.296875 L 165.0625 -11.484375 C 155.351562 -6.066406 145.5 -1.957031 135.5 0.84375 C 125.5 3.644531 114.335938 5.046875 102.015625 5.046875 Z M 102.015625 5.046875 "/></g></g></g></svg>